<svg width="1134" height="472" fill="none" xmlns="http://www.w3.org/2000/svg"><path d="M.333 236v236H1133.67V0H.333v236Zm1119.997 0v222.667H13.667V13.333H1120.33V236Z" fill="#000"/><path d="M83.4 93.733c.4 1.067 27.333 67.6 59.733 148.134L202.2 388l25.333-.267 25.334-.4L312.333 240 371.8 92.667l-25.2-.4c-28.133-.4-31.067.4-35.867 8.533-3.6 6.133-73.866 189.733-76.933 200.933-1.467 5.334-3.333 12.267-4.267 15.6l-1.466 6-4.934-16.666c-4.533-15.067-73.066-194.267-78-203.734-1.066-2.133-3.866-5.466-6.133-7.466L134.733 92h-26c-21.2 0-25.866.267-25.333 1.733ZM491 240v148h56V271.733l15.733.534c16.534.533 21.2 2 25.734 8.133 1.2 1.6 16.133 24.267 33.066 50.267 17.067 26 32.534 48.933 34.4 50.8 5.334 5.733 11.734 6.666 40.667 6.266l26.4-.4-24.933-36.666c-50.134-74.134-55.2-81.2-60.8-85.334l-5.334-4 5.2-2c42.134-16.4 64.667-54.266 57.6-97.2-5.066-31.333-23.466-51.866-56-62.8-19.2-6.4-31.333-7.333-92-7.333H491v148Zm109.467-103.467c23.866 4.267 36.266 15.467 40 35.734 3.066 16.8-2.267 34-14 44.8C614.2 228.4 600.467 232 569.4 232H547v-97.333h21.733c12.134.133 26 .933 31.734 1.866Zm215.866-21.866v22.666h89.334V388h56V137.333H1051V92H816.333v22.667Z" fill="#000"/></svg>